HIERARCHY
ROOT Hips
{
  OFFSET 5.72205e-005 65.662 3.42586
  CHANNELS 6 Xposition Yposition Zposition Zrotation Xrotation Yrotation
  JOINT Chest
  {
    OFFSET 0 8.7983 -4.7612
    CHANNELS 3 Zrotation Xrotation Yrotation
    JOINT Chest2
    {
      OFFSET 0 8.0291 0.4195
      CHANNELS 3 Zrotation Xrotation Yrotation
      JOINT Chest3
      {
        OFFSET 0 9.9351 -2.2114
        CHANNELS 3 Zrotation Xrotation Yrotation
        JOINT Neck
        {
          OFFSET 0 22.3885 -0.4656
          CHANNELS 3 Zrotation Xrotation Yrotation
          JOINT Head
          {
            OFFSET -0.0001 12.643 3.4389
            CHANNELS 3 Zrotation Xrotation Yrotation
            End Site
            {
              OFFSET 0.0001 17.6655 0.5274
            }
          }
        }
        JOINT LeftCollar
        {
          OFFSET 2.2603 21.606 7.4023
          CHANNELS 3 Zrotation Xrotation Yrotation
          JOINT LeftShoulder
          {
            OFFSET 13.5163 -1.1332 -5.0146
            CHANNELS 3 Zrotation Xrotation Yrotation
            JOINT LeftElbow
            {
              OFFSET -0.0995 -28.05 -0.2431
              CHANNELS 3 Zrotation Xrotation Yrotation
              JOINT LeftWrist
              {
                OFFSET 0.0679 -23.3996 -0.1402
                CHANNELS 3 Zrotation Xrotation Yrotation
                JOINT LeftFinger1
                {
                  OFFSET 0.7932 -9.069 2.5189
                  CHANNELS 3 Zrotation Xrotation Yrotation
                  JOINT LeftFinger11
                  {
                    OFFSET -0.8272 -3.3923 0.5977
                    CHANNELS 3 Zrotation Xrotation Yrotation
                    JOINT LeftFinger12
                    {
                      OFFSET -0.5649 -2.3158 0.4082
                      CHANNELS 3 Zrotation Xrotation Yrotation
                      End Site
                      {
                        OFFSET -0.4919 -1.6479 0.2673
                      }
                    }
                  }
                }
                JOINT LeftFinger2
                {
                  OFFSET 0.9159 -9.2044 0.2193
                  CHANNELS 3 Zrotation Xrotation Yrotation
                  JOINT LeftFinger21
                  {
                    OFFSET 0.0117 -4.1944 -0.0248
                    CHANNELS 3 Zrotation Xrotation Yrotation
                    JOINT LeftFinger22
                    {
                      OFFSET 0.0071 -2.3249 -0.0142
                      CHANNELS 3 Zrotation Xrotation Yrotation
                      End Site
                      {
                        OFFSET -0.1475 -2.0882 0.0028
                      }
                    }
                  }
                }
                JOINT LeftFinger3
                {
                  OFFSET 0.6113 -8.7231 -2.0637
                  CHANNELS 3 Zrotation Xrotation Yrotation
                  JOINT LeftFinger31
                  {
                    OFFSET -0.1927 -3.8059 -0.2383
                    CHANNELS 3 Zrotation Xrotation Yrotation
                    JOINT LeftFinger32
                    {
                      OFFSET -0.1091 -2.1688 -0.1362
                      CHANNELS 3 Zrotation Xrotation Yrotation
                      End Site
                      {
                        OFFSET -0.2358 -1.9176 -0.0906
                      }
                    }
                  }
                }
                JOINT LeftFinger4
                {
                  OFFSET -0.6151 -8.0947 -3.5641
                  CHANNELS 3 Zrotation Xrotation Yrotation
                  JOINT LeftFinger41
                  {
                    OFFSET -0.4882 -2.341 -0.6462
                    CHANNELS 3 Zrotation Xrotation Yrotation
                    JOINT LeftFinger42
                    {
                      OFFSET -0.3575 -1.7167 -0.4742
                      CHANNELS 3 Zrotation Xrotation Yrotation
                      End Site
                      {
                        OFFSET -0.4187 -1.5237 -0.3496
                      }
                    }
                  }
                }
                JOINT LeftFinger0
                {
                  OFFSET -1.42 -1.8761 1.4223
                  CHANNELS 3 Zrotation Xrotation Yrotation
                  JOINT LeftFinger01
                  {
                    OFFSET -1.1471 -3.4929 2.6334
                    CHANNELS 3 Zrotation Xrotation Yrotation
                    JOINT LeftFinger02
                    {
                      OFFSET -0.823 -2.3 1.6571
                      CHANNELS 3 Zrotation Xrotation Yrotation
                      End Site
                      {
                        OFFSET -0.5822 -1.6914 1.1582
                      }
                    }
                  }
                }
              }
            }
          }
        }
        JOINT RightCollar
        {
          OFFSET -2.2603 21.606 7.4023
          CHANNELS 3 Zrotation Xrotation Yrotation
          JOINT RightShoulder
          {
            OFFSET -13.5187 -1.1334 -5.0155
            CHANNELS 3 Zrotation Xrotation Yrotation
            JOINT RightElbow
            {
              OFFSET 0.0994 -28.0499 -0.2431
              CHANNELS 3 Zrotation Xrotation Yrotation
              JOINT RightWrist
              {
                OFFSET -0.0679 -23.3996 -0.1402
                CHANNELS 3 Zrotation Xrotation Yrotation
                JOINT RightFinger1
                {
                  OFFSET -0.7932 -9.0691 2.5189
                  CHANNELS 3 Zrotation Xrotation Yrotation
                  JOINT RightFinger11
                  {
                    OFFSET 0.8272 -3.3923 0.5977
                    CHANNELS 3 Zrotation Xrotation Yrotation
                    JOINT RightFinger12
                    {
                      OFFSET 0.565 -2.3158 0.4082
                      CHANNELS 3 Zrotation Xrotation Yrotation
                      End Site
                      {
                        OFFSET 0.4919 -1.6479 0.2673
                      }
                    }
                  }
                }
                JOINT RightFinger2
                {
                  OFFSET -0.916 -9.2044 0.2193
                  CHANNELS 3 Zrotation Xrotation Yrotation
                  JOINT RightFinger21
                  {
                    OFFSET -0.0117 -4.1944 -0.0248
                    CHANNELS 3 Zrotation Xrotation Yrotation
                    JOINT RightFinger22
                    {
                      OFFSET -0.0071 -2.3249 -0.0142
                      CHANNELS 3 Zrotation Xrotation Yrotation
                      End Site
                      {
                        OFFSET 0.1475 -2.0882 0.0028
                      }
                    }
                  }
                }
                JOINT RightFinger3
                {
                  OFFSET -0.6113 -8.7231 -2.0637
                  CHANNELS 3 Zrotation Xrotation Yrotation
                  JOINT RightFinger31
                  {
                    OFFSET 0.1927 -3.8059 -0.2383
                    CHANNELS 3 Zrotation Xrotation Yrotation
                    JOINT RightFinger32
                    {
                      OFFSET 0.1091 -2.1688 -0.1362
                      CHANNELS 3 Zrotation Xrotation Yrotation
                      End Site
                      {
                        OFFSET 0.2358 -1.9176 -0.0906
                      }
                    }
                  }
                }
                JOINT RightFinger4
                {
                  OFFSET 0.6151 -8.0947 -3.564
                  CHANNELS 3 Zrotation Xrotation Yrotation
                  JOINT RightFinger41
                  {
                    OFFSET 0.4882 -2.341 -0.6462
                    CHANNELS 3 Zrotation Xrotation Yrotation
                    JOINT RightFinger42
                    {
                      OFFSET 0.3574 -1.7166 -0.4742
                      CHANNELS 3 Zrotation Xrotation Yrotation
                      End Site
                      {
                        OFFSET 0.4187 -1.5237 -0.3496
                      }
                    }
                  }
                }
                JOINT RightFinger0
                {
                  OFFSET 1.4199 -1.8761 1.4221
                  CHANNELS 3 Zrotation Xrotation Yrotation
                  JOINT RightFinger01
                  {
                    OFFSET 1.1472 -3.4929 2.6336
                    CHANNELS 3 Zrotation Xrotation Yrotation
                    JOINT RightFinger02
                    {
                      OFFSET 0.8229 -2.3 1.6571
                      CHANNELS 3 Zrotation Xrotation Yrotation
                      End Site
                      {
                        OFFSET 0.5822 -1.6914 1.1582
                      }
                    }
                  }
                }
              }
            }
          }
        }
      }
    }
  }
  JOINT RightHip
  {
    OFFSET -9.412 3.9771 -0.7758
    CHANNELS 3 Zrotation Xrotation Yrotation
    JOINT RightKnee
    {
      OFFSET -0.7531 -40.938 0
      CHANNELS 3 Zrotation Xrotation Yrotation
      JOINT RightAnkle
      {
        OFFSET 0 -40.1986 0
        CHANNELS 3 Zrotation Xrotation Yrotation
        JOINT RightToe
        {
          OFFSET 0 -4.4182 9.239
          CHANNELS 3 Zrotation Xrotation Yrotation
          End Site
          {
            OFFSET 0 0 6.1981
          }
        }
      }
    }
  }
  JOINT LeftHip
  {
    OFFSET 9.4119 3.9773 -0.7758
    CHANNELS 3 Zrotation Xrotation Yrotation
    JOINT LeftKnee
    {
      OFFSET 0.7532 -40.9383 0
      CHANNELS 3 Zrotation Xrotation Yrotation
      JOINT LeftAnkle
      {
        OFFSET 0 -40.1986 0
        CHANNELS 3 Zrotation Xrotation Yrotation
        JOINT LeftToe
        {
          OFFSET 0 -4.4182 9.239
          CHANNELS 3 Zrotation Xrotation Yrotation
          End Site
          {
            OFFSET 0 0 6.1981
          }
        }
      }
    }
  }
}
MOTION
Frames:	4
Frame Time:	0.0333333
5.72205e-005 65.662 3.42586 0 0 -0 0 0 -0 0 0 -0 0 0 -0 0 0 -0 0 0 -0 0 0 -12.5014 88.1196 14.2451 10.6914 -0.00160068 -0.00239207 0.000740045 -8.4365e-005 7.00714e-005 -9.52055e-007 9.93923e-017 -1.98785e-016 -1.59028e-015 9.93923e-017 -5.96354e-016 -1.59028e-015 -9.93923e-017 -5.96354e-016 -1.59028e-015 9.93923e-017 -1.98785e-016 -1.59028e-015 -0.0128176 0.00232552 8.52707e-005 9.93923e-017 5.96354e-016 -0 9.93923e-017 -1.98785e-016 -1.59028e-015 -0.0160551 0.00299681 0.000857156 -2.48481e-016 0 3.18055e-015 9.93923e-017 -1.98785e-016 -1.59028e-015 -0.0125865 0.0031206 0.00282719 0 1.98785e-016 -0 9.93923e-017 -1.98785e-016 -1.59028e-015 9.93923e-017 -5.96354e-016 -1.59028e-015 -9.93923e-017 -5.96354e-016 -1.59028e-015 -0.865644 0.16582 7.03859 -88.0329 10.2057 -10.5567 0.0015593 -0.00248883 -0.000788628 7.87605e-005 4.10553e-005 1.24965e-005 -3.97569e-016 -7.95139e-016 3.18055e-015 -1.98785e-016 -3.97569e-016 3.18055e-015 -1.98785e-016 0 3.18055e-015 -3.97569e-016 -7.95139e-016 3.18055e-015 0.0129473 0.00231697 -8.70038e-005 9.93923e-017 -7.95139e-016 1.59028e-015 -3.97569e-016 -7.95139e-016 3.18055e-015 0.0163314 0.00303369 -0.000872333 3.97569e-016 7.95139e-016 -3.18055e-015 -3.97569e-016 -7.95139e-016 3.18055e-015 0.0145763 0.00367772 -0.00326275 9.93923e-017 -3.97569e-016 -0 -3.97569e-016 -7.95139e-016 3.18055e-015 -1.98785e-016 -3.97569e-016 3.18055e-015 -1.98785e-016 0 3.18055e-015 3.42482 1.32465 -0.0626183 0.000117508 0.717283 0.000978199 -3.4257 -2.04197 -0.0604716 6.47761e-025 0 -0 -3.42483 1.34017 0.0627307 -0.000193936 0.682302 -0.0013703 3.42574 -2.02253 0.0595886 -8.45714e-024 0 -7.40531e-025 
7.38383 43.8077 7.79914 1.00538e-008 -27.4083 4.44887e-009 0.0614553 5.25905 0.0369536 0.120253 10.5181 0.0686513 0.120253 10.5182 0.0686515 1.15027e-006 4.07402 9.07395e-007 8.17302e-008 7.03612 -1.20477e-007 1.24668e-006 0.000104497 -12.5014 91.9499 -16.5519 30.6823 -2.17695 -12.9309 -8.04492 -8.37727 1.5341 -0.1479 1.09983e-005 -4.0754e-006 -2.89771e-006 -1.59028e-015 3.18055e-015 -4.77083e-015 1.59028e-015 6.36111e-015 -3.18055e-015 1.09983e-005 -4.0754e-006 -2.89771e-006 -0.0128225 0.00232965 8.78136e-005 -1.59028e-015 -1.27222e-014 3.18055e-015 1.09983e-005 -4.0754e-006 -2.89771e-006 -0.0159708 0.00299062 0.000854663 1.59028e-015 -9.54166e-015 3.18055e-015 1.09983e-005 -4.0754e-006 -2.89771e-006 -0.0126024 0.00312947 0.00282725 -2.64834e-031 3.18055e-015 4.77083e-015 1.09983e-005 -4.0754e-006 -2.89771e-006 -1.59028e-015 3.18055e-015 -4.77083e-015 1.59028e-015 6.36111e-015 -3.18055e-015 -0.867292 -3.53817 6.98256 -85.9243 -17.5186 -6.01607 0.449767 -12.1032 -8.12549 6.22021 -6.45087 -2.13757 4.59114e-006 -6.87255e-006 -3.05262e-006 -1.58102e-006 4.72474e-006 1.43121e-006 1.99351e-006 -6.86996e-006 -1.8115e-006 4.59114e-006 -6.87255e-006 -3.05262e-006 0.0129724 0.00232068 -8.71275e-005 -9.63946e-006 -1.29511e-005 2.05682e-006 4.59114e-006 -6.87255e-006 -3.05262e-006 0.0164331 0.0030516 -0.000882231 5.36847e-009 2.5552e-006 2.23662e-006 4.59114e-006 -6.87255e-006 -3.05262e-006 0.0145488 0.00367307 -0.00325952 2.6091e-006 -3.06456e-006 3.23204e-006 4.59114e-006 -6.87255e-006 -3.05262e-006 -1.58102e-006 4.72474e-006 1.43121e-006 1.99351e-006 -6.86996e-006 -1.8115e-006 -9.31075 -24.6207 -25.0923 0.0917569 43.1713 -0.987265 -3.2927 4.98472 -0.473534 1.98517e-006 8.71027e-008 -1.96165e-006 9.41314 -24.5801 25.0549 -0.0862391 41.6787 0.928175 5.02719 2.77041 -0.061119 6.90575e-007 6.21537e-007 1.51631e-006 
14.7786 23.6411 10.1763 -8.89288e-008 -54.8165 -3.54115e-008 0.0987279 10.518 0.100199 0.183132 21.0361 0.186439 0.183132 21.0362 0.186439 -2.20718e-006 8.14757 -2.56442e-006 -3.17331e-008 14.0722 5.32954e-008 -2.56948e-006 -0.000252799 -12.5014 93.4089 -47.4666 48.8804 -4.66 -25.8644 -16.6153 -16.7596 3.07334 -0.0704111 -4.56908e-032 3.97569e-016 6.58474e-015 -0 0 6.58474e-015 -7.95139e-016 3.97569e-016 9.81499e-015 -4.56908e-032 3.97569e-016 6.58474e-015 -0.0128884 0.00233625 8.69313e-005 1.78739e-006 -8.49349e-006 -6.41454e-006 -4.56908e-032 3.97569e-016 6.58474e-015 -0.0159701 0.00297884 0.000848235 -9.20713e-032 -1.19271e-015 -4.42296e-015 -4.56908e-032 3.97569e-016 6.58474e-015 -0.012515 0.00311219 0.00281608 -3.89665e-032 3.97569e-016 5.61567e-015 -4.56908e-032 3.97569e-016 6.58474e-015 -0 0 6.58474e-015 -7.95139e-016 3.97569e-016 9.81499e-015 -0.872606 -7.24261 6.92607 -84.1403 -45.2747 -1.94265 1.14314 -24.2371 -15.5346 12.5322 -12.8761 -4.17157 -3.97569e-016 1.35174e-014 1.92573e-015 3.97569e-016 1.19271e-014 -1.00635e-015 -1.25245e-030 1.27222e-014 5.64051e-015 -3.97569e-016 1.35174e-014 1.92573e-015 0.0128432 0.00229652 -9.1786e-005 3.40538e-006 -1.70752e-006 -2.49369e-007 -3.97569e-016 1.35174e-014 1.92573e-015 0.0163377 0.00303736 -0.00087417 5.96354e-016 -1.59028e-015 -1.66482e-015 -3.97569e-016 1.35174e-014 1.92573e-015 0.0145853 0.00366918 -0.00326573 -3.97569e-016 -7.95139e-016 -6.08778e-015 -3.97569e-016 1.35174e-014 1.92573e-015 3.97569e-016 1.19271e-014 -1.00635e-015 -1.25245e-030 1.27222e-014 5.64051e-015 -43.9753 -35.3613 -60.3669 0.0296803 84.0975 -1.9551 -2.72817 12.5511 -0.985572 -6.36111e-015 0 -3.18055e-015 44.0327 -35.1595 60.1247 -0.027375 81.0787 1.82052 6.4032 8.12157 -0.0726932 -1.59028e-015 3.03452e-006 -0 
19.9662 9.86473 10.3566 -3.25655e-008 -74.0023 -1.86285e-008 0.104038 14.1991 0.161445 0.173675 28.3986 0.310358 0.173675 28.3985 0.310357 -5.74487e-006 10.9986 -1.18963e-005 -6.93685e-008 18.9975 1.89159e-007 -8.05832e-006 -0.000913939 -12.5014 88.6049 -68.8745 56.1112 -6.77629 -34.9082 -23.0687 -22.6367 4.13609 0.117473 9.3279e-006 -7.09166e-006 -4.11962e-006 -6.20036e-006 -6.21596e-006 -5.60927e-006 1.00752e-006 -9.61936e-006 1.1795e-006 9.3279e-006 -7.09166e-006 -4.11962e-006 -0.012798 0.00231465 9.33529e-005 -4.2875e-006 -9.61413e-006 -4.75488e-006 9.3279e-006 -7.09166e-006 -4.11962e-006 -0.0160584 0.00298558 0.000860193 -1.1969e-006 -1.37727e-006 2.22775e-006 9.3279e-006 -7.09166e-006 -4.11962e-006 -0.0125191 0.00309794 0.00280772 -4.11776e-006 -7.1964e-006 1.93698e-007 9.3279e-006 -7.09166e-006 -4.11962e-006 -6.20036e-006 -6.21596e-006 -5.60927e-006 1.00752e-006 -9.61936e-006 1.1795e-006 -0.878566 -9.83613 6.88598 -83.7118 -64.7135 0.0547855 1.96158 -32.7292 -20.1753 17.0129 -17.3618 -5.52392 1.76556e-031 -3.18055e-015 3.18055e-015 0 0 -0 -1.59028e-015 3.18055e-015 -3.18055e-015 1.76556e-031 -3.18055e-015 3.18055e-015 0.012965 0.00231848 -8.93317e-005 -1.59028e-015 -3.18055e-015 6.36111e-015 1.76556e-031 -3.18055e-015 3.18055e-015 0.0163145 0.00303643 -0.000884195 -6.36111e-015 -3.18055e-015 -1.59028e-015 1.76556e-031 -3.18055e-015 3.18055e-015 0.0145926 0.00369354 -0.00327504 -5.41789e-007 -1.87538e-006 4.22341e-006 1.76556e-031 -3.18055e-015 3.18055e-015 0 0 -0 -1.59028e-015 3.18055e-015 -3.18055e-015 -71.9294 -28.828 -83.2672 179.969 66.9853 177.139 -2.09911 17.7543 -1.59763 -7.10282e-007 -6.81504e-007 -1.47274e-006 71.8303 -28.4236 82.6128 179.929 70.9567 -177.403 7.27244 11.6606 0.118625 -7.24656e-007 -2.08451e-006 -6.1137e-006 
